<svg width="24" height="29" viewBox="0 0 24 29" fill="none" xmlns="http://www.w3.org/2000/svg">
<path d="M0.905426 25.2106L2.9352 21.3414C5.28546 22.9536 8.91769 24.1358 12.4431 24.1358C17.0368 24.1358 18.8529 22.7386 18.8529 20.3741C18.8529 14.2479 1.65323 19.5143 1.65323 8.65904C1.65323 3.71506 6.03328 0.490723 12.9772 0.490723C16.5026 0.490723 20.5622 1.45802 22.9124 2.96271L20.7758 6.83191C18.3187 5.21975 15.648 4.68236 12.9772 4.68236C8.70403 4.68236 6.56743 6.29453 6.56743 8.44408C6.56743 14.8928 23.7671 9.62634 23.7671 20.2666C23.7671 25.2106 19.2802 28.3275 12.0158 28.3275C7.63573 28.435 3.14886 27.0377 0.905426 25.2106Z" fill="white"/>
</svg>
