<svg width="24" height="29" viewBox="0 0 24 29" fill="none" xmlns="http://www.w3.org/2000/svg">
<path d="M24 11.561V28.1126H19.2995V24.4583C17.697 26.9303 14.599 28.3275 10.3257 28.3275C4.12959 28.3275 0.283707 24.9957 0.283707 20.2667C0.283707 15.8601 3.06129 12.3133 11.1804 12.3133H18.979V11.346C18.979 7.1544 16.5219 4.78989 11.7145 4.78989C8.50963 4.78989 5.19789 5.97215 3.06129 7.69179L1.03151 3.93007C3.8091 1.67304 7.86865 0.383301 12.2487 0.383301C19.8336 0.490779 24 4.14503 24 11.561ZM19.0858 19.7293V15.8601H11.5009C6.58669 15.8601 5.19789 17.7947 5.19789 20.0517C5.19789 22.7387 7.44132 24.4583 11.1804 24.4583C14.9194 24.5658 17.9107 22.9536 19.0858 19.7293Z" fill="white"/>
</svg>
