<svg width="41" height="49" viewBox="0 0 41 49" fill="none" xmlns="http://www.w3.org/2000/svg">
<path d="M0.789307 43.2535L4.28853 36.5832C8.34026 39.3625 14.602 41.4006 20.6796 41.4006C28.5989 41.4006 31.7298 38.9919 31.7298 34.9156C31.7298 24.3543 2.07849 33.4333 2.07849 14.7194C2.07849 6.19628 9.62945 0.637695 21.6005 0.637695C27.6781 0.637695 34.6765 2.30527 38.7282 4.89928L35.0448 11.5696C30.8089 8.79028 26.2047 7.86385 21.6005 7.86385C14.2337 7.86385 10.5503 10.6431 10.5503 14.3489C10.5503 25.466 40.2016 16.387 40.2016 34.7303C40.2016 43.2535 32.4665 48.6268 19.9429 48.6268C12.392 48.8121 4.65687 46.4034 0.789307 43.2535Z" fill="#FF6060"/>
</svg>
