<svg width="42" height="49" viewBox="0 0 42 49" fill="none" xmlns="http://www.w3.org/2000/svg">
<path d="M41.3215 19.7221V48.2562H33.2181V41.9565C30.4556 46.2181 25.1146 48.6268 17.7479 48.6268C7.06602 48.6268 0.435913 42.8829 0.435913 34.7303C0.435913 27.1336 5.22432 21.0191 19.2212 21.0191H32.6656V19.3516C32.6656 12.1254 28.4297 8.04912 20.142 8.04912C14.617 8.04912 8.90771 10.0873 5.22432 13.0518L1.72509 6.56683C6.5135 2.67583 13.5119 0.452393 21.0629 0.452393C34.1389 0.637679 41.3215 6.93741 41.3215 19.7221ZM32.8498 33.8039V27.1336H19.7737C11.3019 27.1336 8.90771 30.4687 8.90771 34.3597C8.90771 38.9919 12.7753 41.9565 19.2212 41.9565C25.6671 42.1418 30.8239 39.3625 32.8498 33.8039Z" fill="#FF6060"/>
</svg>
